# xmcd
#
# Track frame offsets:
# 150
# 840
# 11980
# 24188
# 35945
# 46878
#
# Disc length: 707 seconds
#
#
# Revision: 0
# Processed by: cddbd v1.5.1PL0 Copyright (c) Steve Scherf et al.
# Submitted via: FreeRIP 2.70 
#
DISCID=3b02c106
DTITLE=Magda Umer i Grzegorz Turnau - Ko³ysanki-Utulanki
DYEAR=2004
DGENRE=Ballad
TTITLE0=Reklama Bebilonu
TTITLE1=Pora Dobrej Nocy
TTITLE2=Bajka iskierki
TTITLE3=Z³otow³osa królewna
TTITLE4=Wró¿ki
TTITLE5=Aaa, kotki dwa
EXTD=mini-wersja z miesiêcznika "Dziecko"
EXTT0=
EXTT1=
EXTT2=
EXTT3=
EXTT4=
EXTT5=
PLAYORDER=
